<mxfile host="app.diagrams.net" agent="Mozilla/5.0 (Windows NT 10.0; Win64; x64) AppleWebKit/537.36 (KHTML, like Gecko) Chrome/139.0.0.0 Safari/537.36" version="28.1.1">
  <diagram name="페이지-1" id="TVMJkiW0Y8QjuM5mLsdb">
    <mxGraphModel dx="5037" dy="878" grid="1" gridSize="10" guides="1" tooltips="1" connect="1" arrows="1" fold="1" page="1" pageScale="1" pageWidth="3300" pageHeight="4681" math="0" shadow="0">
      <root>
        <mxCell id="0" />
        <mxCell id="1" parent="0" />
        <object placeholders="1" c4Name="cha-cha" c4Type="SystemScopeBoundary" c4Application="cha-cha" label="&lt;font style=&quot;font-size: 16px&quot;&gt;&lt;b&gt;&lt;div style=&quot;text-align: left&quot;&gt;%c4Name%&lt;/div&gt;&lt;/b&gt;&lt;/font&gt;&lt;div style=&quot;text-align: left&quot;&gt;[%c4Application%]&lt;/div&gt;" id="_aDYQmP28ujLDMtE8fuJ-1">
          <mxCell style="rounded=1;fontSize=11;whiteSpace=wrap;html=1;dashed=1;arcSize=20;fillColor=none;strokeColor=#666666;fontColor=#333333;labelBackgroundColor=none;align=left;verticalAlign=bottom;labelBorderColor=none;spacingTop=0;spacing=10;dashPattern=8 4;metaEdit=1;rotatable=0;perimeter=rectanglePerimeter;noLabel=0;labelPadding=0;allowArrows=0;connectable=0;expand=0;recursiveResize=0;editable=1;pointerEvents=0;absoluteArcSize=1;points=[[0.25,0,0],[0.5,0,0],[0.75,0,0],[1,0.25,0],[1,0.5,0],[1,0.75,0],[0.75,1,0],[0.5,1,0],[0.25,1,0],[0,0.75,0],[0,0.5,0],[0,0.25,0]];" parent="1" vertex="1">
            <mxGeometry x="10" y="10" width="1670" height="890" as="geometry" />
          </mxCell>
        </object>
        <mxCell id="cjbke2DT29-wxMXxLu5P-3" value="회원가입" style="ellipse;whiteSpace=wrap;html=1;" vertex="1" parent="1">
          <mxGeometry x="170" y="20" width="140" height="70" as="geometry" />
        </mxCell>
        <mxCell id="cjbke2DT29-wxMXxLu5P-9" value="" style="verticalLabelPosition=bottom;sketch=0;html=1;fillColor=#A153A0;verticalAlign=top;align=center;pointerEvents=1;shape=mxgraph.cisco_safe.design.actor_2;" vertex="1" parent="1">
          <mxGeometry x="-40" y="670" width="19" height="50" as="geometry" />
        </mxCell>
        <mxCell id="cjbke2DT29-wxMXxLu5P-10" value="" style="verticalLabelPosition=bottom;sketch=0;html=1;fillColor=#A153A0;verticalAlign=top;align=center;pointerEvents=1;shape=mxgraph.cisco_safe.design.actor_2;" vertex="1" parent="1">
          <mxGeometry x="-40" y="230" width="19" height="50" as="geometry" />
        </mxCell>
        <mxCell id="cjbke2DT29-wxMXxLu5P-11" value="" style="verticalLabelPosition=bottom;sketch=0;html=1;fillColor=#A153A0;verticalAlign=top;align=center;pointerEvents=1;shape=mxgraph.cisco_safe.design.actor_1;" vertex="1" parent="1">
          <mxGeometry x="-50" y="450" width="23.5" height="50" as="geometry" />
        </mxCell>
        <mxCell id="cjbke2DT29-wxMXxLu5P-12" value="포인트 조회" style="ellipse;whiteSpace=wrap;html=1;" vertex="1" parent="1">
          <mxGeometry x="540" y="110" width="140" height="70" as="geometry" />
        </mxCell>
        <mxCell id="cjbke2DT29-wxMXxLu5P-13" value="회원 탈퇴" style="ellipse;whiteSpace=wrap;html=1;" vertex="1" parent="1">
          <mxGeometry x="380" y="140" width="140" height="70" as="geometry" />
        </mxCell>
        <mxCell id="cjbke2DT29-wxMXxLu5P-14" value="회원 정보" style="ellipse;whiteSpace=wrap;html=1;" vertex="1" parent="1">
          <mxGeometry x="200" y="130" width="140" height="70" as="geometry" />
        </mxCell>
        <mxCell id="cjbke2DT29-wxMXxLu5P-60" value="" style="edgeStyle=orthogonalEdgeStyle;rounded=0;orthogonalLoop=1;jettySize=auto;html=1;dashed=1;" edge="1" parent="1" source="cjbke2DT29-wxMXxLu5P-15" target="cjbke2DT29-wxMXxLu5P-3">
          <mxGeometry relative="1" as="geometry" />
        </mxCell>
        <mxCell id="cjbke2DT29-wxMXxLu5P-15" value="로그인" style="ellipse;whiteSpace=wrap;html=1;" vertex="1" parent="1">
          <mxGeometry x="380" y="20" width="140" height="70" as="geometry" />
        </mxCell>
        <mxCell id="cjbke2DT29-wxMXxLu5P-16" value="비밀번호 변경" style="ellipse;whiteSpace=wrap;html=1;" vertex="1" parent="1">
          <mxGeometry x="560" y="20" width="140" height="70" as="geometry" />
        </mxCell>
        <mxCell id="cjbke2DT29-wxMXxLu5P-17" value="회원 조회" style="ellipse;whiteSpace=wrap;html=1;" vertex="1" parent="1">
          <mxGeometry x="760" y="20" width="140" height="70" as="geometry" />
        </mxCell>
        <mxCell id="cjbke2DT29-wxMXxLu5P-20" value="신고 관리" style="ellipse;whiteSpace=wrap;html=1;" vertex="1" parent="1">
          <mxGeometry x="380" y="220" width="140" height="70" as="geometry" />
        </mxCell>
        <mxCell id="cjbke2DT29-wxMXxLu5P-24" value="회원 등급" style="ellipse;whiteSpace=wrap;html=1;" vertex="1" parent="1">
          <mxGeometry x="540" y="210" width="140" height="70" as="geometry" />
        </mxCell>
        <mxCell id="cjbke2DT29-wxMXxLu5P-25" value="거래내역 조회" style="ellipse;whiteSpace=wrap;html=1;" vertex="1" parent="1">
          <mxGeometry x="690" y="110" width="140" height="70" as="geometry" />
        </mxCell>
        <mxCell id="cjbke2DT29-wxMXxLu5P-26" value="관심 거래목록 조회" style="ellipse;whiteSpace=wrap;html=1;" vertex="1" parent="1">
          <mxGeometry x="190" y="220" width="140" height="70" as="geometry" />
        </mxCell>
        <mxCell id="cjbke2DT29-wxMXxLu5P-27" value="종료" style="ellipse;whiteSpace=wrap;html=1;" vertex="1" parent="1">
          <mxGeometry x="380" y="350" width="140" height="70" as="geometry" />
        </mxCell>
        <mxCell id="cjbke2DT29-wxMXxLu5P-28" value="입찰" style="ellipse;whiteSpace=wrap;html=1;" vertex="1" parent="1">
          <mxGeometry x="220" y="360" width="140" height="70" as="geometry" />
        </mxCell>
        <mxCell id="cjbke2DT29-wxMXxLu5P-29" value="카테고리 삭제" style="ellipse;whiteSpace=wrap;html=1;" vertex="1" parent="1">
          <mxGeometry x="370" y="620" width="140" height="70" as="geometry" />
        </mxCell>
        <mxCell id="cjbke2DT29-wxMXxLu5P-30" value="카테고리 수정" style="ellipse;whiteSpace=wrap;html=1;" vertex="1" parent="1">
          <mxGeometry x="200" y="620" width="140" height="70" as="geometry" />
        </mxCell>
        <mxCell id="cjbke2DT29-wxMXxLu5P-31" value="카테고리 추가" style="ellipse;whiteSpace=wrap;html=1;" vertex="1" parent="1">
          <mxGeometry x="700" y="550" width="140" height="70" as="geometry" />
        </mxCell>
        <mxCell id="cjbke2DT29-wxMXxLu5P-32" value="후기" style="ellipse;whiteSpace=wrap;html=1;" vertex="1" parent="1">
          <mxGeometry x="540" y="540" width="140" height="70" as="geometry" />
        </mxCell>
        <mxCell id="cjbke2DT29-wxMXxLu5P-33" value="배송" style="ellipse;whiteSpace=wrap;html=1;" vertex="1" parent="1">
          <mxGeometry x="380" y="540" width="140" height="70" as="geometry" />
        </mxCell>
        <mxCell id="cjbke2DT29-wxMXxLu5P-34" value="신고" style="ellipse;whiteSpace=wrap;html=1;" vertex="1" parent="1">
          <mxGeometry x="200" y="540" width="140" height="70" as="geometry" />
        </mxCell>
        <mxCell id="cjbke2DT29-wxMXxLu5P-35" value="조회" style="ellipse;whiteSpace=wrap;html=1;" vertex="1" parent="1">
          <mxGeometry x="710" y="450" width="140" height="70" as="geometry" />
        </mxCell>
        <mxCell id="cjbke2DT29-wxMXxLu5P-36" value="연장" style="ellipse;whiteSpace=wrap;html=1;" vertex="1" parent="1">
          <mxGeometry x="370" y="450" width="140" height="70" as="geometry" />
        </mxCell>
        <mxCell id="cjbke2DT29-wxMXxLu5P-37" value="후기 등록" style="ellipse;whiteSpace=wrap;html=1;" vertex="1" parent="1">
          <mxGeometry x="540" y="450" width="140" height="70" as="geometry" />
        </mxCell>
        <mxCell id="cjbke2DT29-wxMXxLu5P-38" value="수정" style="ellipse;whiteSpace=wrap;html=1;" vertex="1" parent="1">
          <mxGeometry x="710" y="350" width="140" height="70" as="geometry" />
        </mxCell>
        <mxCell id="cjbke2DT29-wxMXxLu5P-39" value="삭제" style="ellipse;whiteSpace=wrap;html=1;" vertex="1" parent="1">
          <mxGeometry x="210" y="460" width="140" height="70" as="geometry" />
        </mxCell>
        <mxCell id="cjbke2DT29-wxMXxLu5P-40" value="등록" style="ellipse;whiteSpace=wrap;html=1;" vertex="1" parent="1">
          <mxGeometry x="550" y="350" width="140" height="70" as="geometry" />
        </mxCell>
        <mxCell id="cjbke2DT29-wxMXxLu5P-43" value="회원관리" style="ellipse;whiteSpace=wrap;html=1;" vertex="1" parent="1">
          <mxGeometry x="30" y="90" width="140" height="70" as="geometry" />
        </mxCell>
        <mxCell id="cjbke2DT29-wxMXxLu5P-44" value="경매" style="ellipse;whiteSpace=wrap;html=1;" vertex="1" parent="1">
          <mxGeometry x="20" y="500" width="140" height="70" as="geometry" />
        </mxCell>
        <mxCell id="cjbke2DT29-wxMXxLu5P-45" value="충전" style="ellipse;whiteSpace=wrap;html=1;" vertex="1" parent="1">
          <mxGeometry x="1020" y="50" width="140" height="70" as="geometry" />
        </mxCell>
        <mxCell id="cjbke2DT29-wxMXxLu5P-46" value="환불" style="ellipse;whiteSpace=wrap;html=1;" vertex="1" parent="1">
          <mxGeometry x="1180" y="50" width="140" height="70" as="geometry" />
        </mxCell>
        <mxCell id="cjbke2DT29-wxMXxLu5P-47" value="반환" style="ellipse;whiteSpace=wrap;html=1;" vertex="1" parent="1">
          <mxGeometry x="1510" y="50" width="140" height="70" as="geometry" />
        </mxCell>
        <mxCell id="cjbke2DT29-wxMXxLu5P-48" value="자동충전" style="ellipse;whiteSpace=wrap;html=1;" vertex="1" parent="1">
          <mxGeometry x="1180" y="140" width="140" height="70" as="geometry" />
        </mxCell>
        <mxCell id="cjbke2DT29-wxMXxLu5P-49" value="이전" style="ellipse;whiteSpace=wrap;html=1;" vertex="1" parent="1">
          <mxGeometry x="1030" y="140" width="140" height="70" as="geometry" />
        </mxCell>
        <mxCell id="cjbke2DT29-wxMXxLu5P-50" value="보관" style="ellipse;whiteSpace=wrap;html=1;" vertex="1" parent="1">
          <mxGeometry x="1350" y="50" width="140" height="70" as="geometry" />
        </mxCell>
        <mxCell id="cjbke2DT29-wxMXxLu5P-51" value="경매 알림(입찰자)" style="ellipse;whiteSpace=wrap;html=1;" vertex="1" parent="1">
          <mxGeometry x="1040" y="270" width="140" height="70" as="geometry" />
        </mxCell>
        <mxCell id="cjbke2DT29-wxMXxLu5P-52" value="경매 알림(낙찰자)" style="ellipse;whiteSpace=wrap;html=1;" vertex="1" parent="1">
          <mxGeometry x="1200" y="270" width="140" height="70" as="geometry" />
        </mxCell>
        <mxCell id="cjbke2DT29-wxMXxLu5P-53" value="배송랄림(구매자)" style="ellipse;whiteSpace=wrap;html=1;" vertex="1" parent="1">
          <mxGeometry x="1370" y="270" width="140" height="70" as="geometry" />
        </mxCell>
        <mxCell id="cjbke2DT29-wxMXxLu5P-54" value="배송알림(판매자)" style="ellipse;whiteSpace=wrap;html=1;" vertex="1" parent="1">
          <mxGeometry x="1530" y="270" width="140" height="70" as="geometry" />
        </mxCell>
        <mxCell id="cjbke2DT29-wxMXxLu5P-55" value="결제 알림" style="ellipse;whiteSpace=wrap;html=1;" vertex="1" parent="1">
          <mxGeometry x="1040" y="380" width="140" height="70" as="geometry" />
        </mxCell>
        <mxCell id="cjbke2DT29-wxMXxLu5P-56" value="경매 알림(등록)" style="ellipse;whiteSpace=wrap;html=1;" vertex="1" parent="1">
          <mxGeometry x="1190" y="390" width="140" height="70" as="geometry" />
        </mxCell>
        <mxCell id="cjbke2DT29-wxMXxLu5P-57" value="경매 알림(재입찰)" style="ellipse;whiteSpace=wrap;html=1;" vertex="1" parent="1">
          <mxGeometry x="1360" y="380" width="140" height="70" as="geometry" />
        </mxCell>
        <mxCell id="cjbke2DT29-wxMXxLu5P-58" value="알림" style="ellipse;whiteSpace=wrap;html=1;" vertex="1" parent="1">
          <mxGeometry x="870" y="330" width="140" height="70" as="geometry" />
        </mxCell>
        <mxCell id="cjbke2DT29-wxMXxLu5P-59" value="포인트" style="ellipse;whiteSpace=wrap;html=1;" vertex="1" parent="1">
          <mxGeometry x="860" y="100" width="140" height="70" as="geometry" />
        </mxCell>
        <mxCell id="cjbke2DT29-wxMXxLu5P-65" value="&amp;lt;&amp;lt;include&amp;gt;&amp;gt;" style="html=1;verticalAlign=bottom;labelBackgroundColor=none;endArrow=open;endFill=0;dashed=1;rounded=0;" edge="1" parent="1">
          <mxGeometry x="-1" y="1042" width="160" relative="1" as="geometry">
            <mxPoint x="980" y="618.33" as="sourcePoint" />
            <mxPoint x="1140" y="618.33" as="targetPoint" />
            <mxPoint x="-880" y="484" as="offset" />
          </mxGeometry>
        </mxCell>
      </root>
    </mxGraphModel>
  </diagram>
</mxfile>
